<mxfile host="www.draw.io" modified="2020-03-25T16:10:19.531Z" agent="Mozilla/5.0 (Macintosh; Intel Mac OS X 10_15_1) AppleWebKit/537.36 (KHTML, like Gecko) Chrome/80.0.3987.149 Safari/537.36" etag="GTlQS4H_lWT64Es4cNib" version="12.9.2" type="github" pages="5">
  <diagram id="uGPLxnoArwS2gYUfzntL" name="01 - docker">
    <mxGraphModel dx="715" dy="352" grid="1" gridSize="10" guides="1" tooltips="1" connect="1" arrows="1" fold="1" page="1" pageScale="1" pageWidth="1920" pageHeight="1200" math="0" shadow="0">
      <root>
        <mxCell id="0" />
        <mxCell id="1" parent="0" />
        <mxCell id="EtBarYNKzg1M3KnECaB2-1" value="" style="rounded=0;whiteSpace=wrap;html=1;fillColor=#dae8fc;strokeColor=#6c8ebf;" vertex="1" parent="1">
          <mxGeometry x="580" y="230" width="450" height="180" as="geometry" />
        </mxCell>
        <mxCell id="EtBarYNKzg1M3KnECaB2-2" value="Your Computer" style="text;html=1;strokeColor=none;fillColor=none;align=center;verticalAlign=middle;whiteSpace=wrap;rounded=0;fontSize=21;fontStyle=1" vertex="1" parent="1">
          <mxGeometry x="686.25" y="200" width="237.5" height="20" as="geometry" />
        </mxCell>
        <mxCell id="EtBarYNKzg1M3KnECaB2-3" value="Event Bus" style="rounded=0;whiteSpace=wrap;html=1;fontSize=21;" vertex="1" parent="1">
          <mxGeometry x="610" y="250" width="120" height="60" as="geometry" />
        </mxCell>
        <mxCell id="EtBarYNKzg1M3KnECaB2-4" value="Posts" style="rounded=0;whiteSpace=wrap;html=1;fontSize=21;" vertex="1" parent="1">
          <mxGeometry x="745" y="250" width="120" height="60" as="geometry" />
        </mxCell>
        <mxCell id="EtBarYNKzg1M3KnECaB2-5" value="Comments" style="rounded=0;whiteSpace=wrap;html=1;fontSize=21;" vertex="1" parent="1">
          <mxGeometry x="877.5" y="250" width="120" height="60" as="geometry" />
        </mxCell>
        <mxCell id="EtBarYNKzg1M3KnECaB2-6" value="Moderation" style="rounded=0;whiteSpace=wrap;html=1;fontSize=21;" vertex="1" parent="1">
          <mxGeometry x="610" y="330" width="120" height="60" as="geometry" />
        </mxCell>
        <mxCell id="EtBarYNKzg1M3KnECaB2-7" value="Query" style="rounded=0;whiteSpace=wrap;html=1;fontSize=21;" vertex="1" parent="1">
          <mxGeometry x="745" y="330" width="120" height="60" as="geometry" />
        </mxCell>
      </root>
    </mxGraphModel>
  </diagram>
  <diagram name="02 - docker" id="smsFtUfuqTUNDtthf1SI">
    <mxGraphModel dx="715" dy="352" grid="1" gridSize="10" guides="1" tooltips="1" connect="1" arrows="1" fold="1" page="1" pageScale="1" pageWidth="1920" pageHeight="1200" math="0" shadow="0">
      <root>
        <mxCell id="hqmTKlB6JWNJQ30vn8g6-0" />
        <mxCell id="hqmTKlB6JWNJQ30vn8g6-1" parent="hqmTKlB6JWNJQ30vn8g6-0" />
        <mxCell id="hqmTKlB6JWNJQ30vn8g6-2" value="" style="rounded=0;whiteSpace=wrap;html=1;fillColor=#dae8fc;strokeColor=#6c8ebf;" vertex="1" parent="hqmTKlB6JWNJQ30vn8g6-1">
          <mxGeometry x="480" y="230" width="620" height="230" as="geometry" />
        </mxCell>
        <mxCell id="hqmTKlB6JWNJQ30vn8g6-3" value="Your Computer" style="text;html=1;strokeColor=none;fillColor=none;align=center;verticalAlign=middle;whiteSpace=wrap;rounded=0;fontSize=21;fontStyle=1" vertex="1" parent="hqmTKlB6JWNJQ30vn8g6-1">
          <mxGeometry x="676.25" y="200" width="237.5" height="20" as="geometry" />
        </mxCell>
        <mxCell id="mMg-u-6giyQ29KS_-3oD-0" value="Docker Container" style="rounded=0;whiteSpace=wrap;html=1;fontSize=21;fontStyle=1;fillColor=#f5f5f5;strokeColor=#666666;fontColor=#333333;" vertex="1" parent="hqmTKlB6JWNJQ30vn8g6-1">
          <mxGeometry x="900" y="250" width="190" height="30" as="geometry" />
        </mxCell>
        <mxCell id="mMg-u-6giyQ29KS_-3oD-1" value="" style="rounded=0;whiteSpace=wrap;html=1;fontSize=21;fontStyle=1;fillColor=#f5f5f5;strokeColor=#666666;fontColor=#333333;" vertex="1" parent="hqmTKlB6JWNJQ30vn8g6-1">
          <mxGeometry x="900" y="280" width="190" height="60" as="geometry" />
        </mxCell>
        <mxCell id="hqmTKlB6JWNJQ30vn8g6-6" value="Comments" style="rounded=0;whiteSpace=wrap;html=1;fontSize=16;" vertex="1" parent="hqmTKlB6JWNJQ30vn8g6-1">
          <mxGeometry x="915" y="290" width="165" height="40" as="geometry" />
        </mxCell>
        <mxCell id="mMg-u-6giyQ29KS_-3oD-2" value="Docker Container" style="rounded=0;whiteSpace=wrap;html=1;fontSize=21;fontStyle=1;fillColor=#f5f5f5;strokeColor=#666666;fontColor=#333333;" vertex="1" parent="hqmTKlB6JWNJQ30vn8g6-1">
          <mxGeometry x="700" y="250" width="190" height="30" as="geometry" />
        </mxCell>
        <mxCell id="mMg-u-6giyQ29KS_-3oD-3" value="" style="rounded=0;whiteSpace=wrap;html=1;fontSize=21;fontStyle=1;fillColor=#f5f5f5;strokeColor=#666666;fontColor=#333333;" vertex="1" parent="hqmTKlB6JWNJQ30vn8g6-1">
          <mxGeometry x="700" y="280" width="190" height="60" as="geometry" />
        </mxCell>
        <mxCell id="mMg-u-6giyQ29KS_-3oD-4" value="Posts" style="rounded=0;whiteSpace=wrap;html=1;fontSize=16;" vertex="1" parent="hqmTKlB6JWNJQ30vn8g6-1">
          <mxGeometry x="715" y="290" width="165" height="40" as="geometry" />
        </mxCell>
        <mxCell id="mMg-u-6giyQ29KS_-3oD-5" value="Docker Container" style="rounded=0;whiteSpace=wrap;html=1;fontSize=21;fontStyle=1;fillColor=#f5f5f5;strokeColor=#666666;fontColor=#333333;" vertex="1" parent="hqmTKlB6JWNJQ30vn8g6-1">
          <mxGeometry x="496.25" y="250" width="190" height="30" as="geometry" />
        </mxCell>
        <mxCell id="mMg-u-6giyQ29KS_-3oD-6" value="" style="rounded=0;whiteSpace=wrap;html=1;fontSize=21;fontStyle=1;fillColor=#f5f5f5;strokeColor=#666666;fontColor=#333333;" vertex="1" parent="hqmTKlB6JWNJQ30vn8g6-1">
          <mxGeometry x="496.25" y="280" width="190" height="60" as="geometry" />
        </mxCell>
        <mxCell id="mMg-u-6giyQ29KS_-3oD-7" value="Event Bus" style="rounded=0;whiteSpace=wrap;html=1;fontSize=16;" vertex="1" parent="hqmTKlB6JWNJQ30vn8g6-1">
          <mxGeometry x="511.25" y="290" width="165" height="40" as="geometry" />
        </mxCell>
        <mxCell id="mMg-u-6giyQ29KS_-3oD-8" value="Docker Container" style="rounded=0;whiteSpace=wrap;html=1;fontSize=21;fontStyle=1;fillColor=#f5f5f5;strokeColor=#666666;fontColor=#333333;" vertex="1" parent="hqmTKlB6JWNJQ30vn8g6-1">
          <mxGeometry x="498.75" y="350" width="190" height="30" as="geometry" />
        </mxCell>
        <mxCell id="mMg-u-6giyQ29KS_-3oD-9" value="" style="rounded=0;whiteSpace=wrap;html=1;fontSize=21;fontStyle=1;fillColor=#f5f5f5;strokeColor=#666666;fontColor=#333333;" vertex="1" parent="hqmTKlB6JWNJQ30vn8g6-1">
          <mxGeometry x="498.75" y="380" width="190" height="60" as="geometry" />
        </mxCell>
        <mxCell id="mMg-u-6giyQ29KS_-3oD-10" value="Moderation" style="rounded=0;whiteSpace=wrap;html=1;fontSize=16;" vertex="1" parent="hqmTKlB6JWNJQ30vn8g6-1">
          <mxGeometry x="513.75" y="390" width="165" height="40" as="geometry" />
        </mxCell>
        <mxCell id="mMg-u-6giyQ29KS_-3oD-11" value="Docker Container" style="rounded=0;whiteSpace=wrap;html=1;fontSize=21;fontStyle=1;fillColor=#f5f5f5;strokeColor=#666666;fontColor=#333333;" vertex="1" parent="hqmTKlB6JWNJQ30vn8g6-1">
          <mxGeometry x="700" y="350" width="190" height="30" as="geometry" />
        </mxCell>
        <mxCell id="mMg-u-6giyQ29KS_-3oD-12" value="" style="rounded=0;whiteSpace=wrap;html=1;fontSize=21;fontStyle=1;fillColor=#f5f5f5;strokeColor=#666666;fontColor=#333333;" vertex="1" parent="hqmTKlB6JWNJQ30vn8g6-1">
          <mxGeometry x="700" y="380" width="190" height="60" as="geometry" />
        </mxCell>
        <mxCell id="mMg-u-6giyQ29KS_-3oD-13" value="Query" style="rounded=0;whiteSpace=wrap;html=1;fontSize=16;" vertex="1" parent="hqmTKlB6JWNJQ30vn8g6-1">
          <mxGeometry x="715" y="390" width="165" height="40" as="geometry" />
        </mxCell>
      </root>
    </mxGraphModel>
  </diagram>
  <diagram id="TGHfrpB0ibEGRLgQGmbZ" name="03 - why">
    <mxGraphModel dx="858" dy="422" grid="1" gridSize="10" guides="1" tooltips="1" connect="1" arrows="1" fold="1" page="1" pageScale="1" pageWidth="1920" pageHeight="1200" math="0" shadow="0">
      <root>
        <mxCell id="OMzkanlq8Y191vcATbM0-0" />
        <mxCell id="OMzkanlq8Y191vcATbM0-1" parent="OMzkanlq8Y191vcATbM0-0" />
        <mxCell id="OMzkanlq8Y191vcATbM0-2" value="Wait...Why Docker?" style="text;html=1;strokeColor=none;fillColor=none;align=center;verticalAlign=middle;whiteSpace=wrap;rounded=0;fontSize=25;fontStyle=1" vertex="1" parent="OMzkanlq8Y191vcATbM0-1">
          <mxGeometry x="657.5" y="190" width="330" height="20" as="geometry" />
        </mxCell>
        <mxCell id="OMzkanlq8Y191vcATbM0-3" value="Many times easier to deploy" style="rounded=0;whiteSpace=wrap;html=1;fontSize=18;" vertex="1" parent="OMzkanlq8Y191vcATbM0-1">
          <mxGeometry x="505" y="220" width="635" height="50" as="geometry" />
        </mxCell>
        <mxCell id="OMzkanlq8Y191vcATbM0-4" value="Allows us to use Kubernetes, which is a life-saver with microservices" style="rounded=0;whiteSpace=wrap;html=1;fontSize=18;fontStyle=1" vertex="1" parent="OMzkanlq8Y191vcATbM0-1">
          <mxGeometry x="505" y="400" width="635" height="50" as="geometry" />
        </mxCell>
        <mxCell id="OMzkanlq8Y191vcATbM0-5" value="Solves a ton of cross-platform (windows vs macos vs linux) issues" style="rounded=0;whiteSpace=wrap;html=1;fontSize=18;" vertex="1" parent="OMzkanlq8Y191vcATbM0-1">
          <mxGeometry x="505" y="340" width="635" height="50" as="geometry" />
        </mxCell>
        <mxCell id="OMzkanlq8Y191vcATbM0-6" value="Super easy to scale" style="rounded=0;whiteSpace=wrap;html=1;fontSize=18;" vertex="1" parent="OMzkanlq8Y191vcATbM0-1">
          <mxGeometry x="505" y="280" width="635" height="50" as="geometry" />
        </mxCell>
        <mxCell id="kGUeqkLpHL_VvSy9vvvt-0" value="There are many blog posts online to tell you &lt;i&gt;why&lt;/i&gt;&amp;nbsp;to use Docker" style="rounded=0;whiteSpace=wrap;html=1;fontSize=18;" vertex="1" parent="OMzkanlq8Y191vcATbM0-1">
          <mxGeometry x="505" y="460" width="635" height="50" as="geometry" />
        </mxCell>
      </root>
    </mxGraphModel>
  </diagram>
  <diagram id="YVCAH3EXZc3DehuYH1u1" name="04 - note">
    <mxGraphModel dx="715" dy="352" grid="1" gridSize="10" guides="1" tooltips="1" connect="1" arrows="1" fold="1" page="1" pageScale="1" pageWidth="1920" pageHeight="1200" math="0" shadow="0">
      <root>
        <mxCell id="TNOyOTzoj3xBKnb3hx0Y-0" />
        <mxCell id="TNOyOTzoj3xBKnb3hx0Y-1" parent="TNOyOTzoj3xBKnb3hx0Y-0" />
        <mxCell id="TNOyOTzoj3xBKnb3hx0Y-4" style="edgeStyle=orthogonalEdgeStyle;rounded=0;orthogonalLoop=1;jettySize=auto;html=1;exitX=0.5;exitY=1;exitDx=0;exitDy=0;fontSize=18;" edge="1" parent="TNOyOTzoj3xBKnb3hx0Y-1" source="TNOyOTzoj3xBKnb3hx0Y-2" target="TNOyOTzoj3xBKnb3hx0Y-3">
          <mxGeometry relative="1" as="geometry" />
        </mxCell>
        <mxCell id="TNOyOTzoj3xBKnb3hx0Y-2" value="Don&#39;t know anything about Docker?" style="rounded=0;whiteSpace=wrap;html=1;fontSize=18;fillColor=#dae8fc;strokeColor=#6c8ebf;" vertex="1" parent="TNOyOTzoj3xBKnb3hx0Y-1">
          <mxGeometry x="500" y="260" width="480" height="70" as="geometry" />
        </mxCell>
        <mxCell id="TNOyOTzoj3xBKnb3hx0Y-3" value="&lt;b&gt;No problem.&lt;/b&gt;&amp;nbsp;There&#39;s an appendix section towards the end of the course that will give you a background in Docker" style="rounded=0;whiteSpace=wrap;html=1;fontSize=18;fillColor=#dae8fc;strokeColor=#6c8ebf;" vertex="1" parent="TNOyOTzoj3xBKnb3hx0Y-1">
          <mxGeometry x="500" y="400" width="480" height="70" as="geometry" />
        </mxCell>
      </root>
    </mxGraphModel>
  </diagram>
  <diagram id="WYamEJ_uFW-Ez7pgZ_n6" name="05 - docker">
    <mxGraphModel dx="884" dy="435" grid="1" gridSize="10" guides="1" tooltips="1" connect="1" arrows="1" fold="1" page="1" pageScale="1" pageWidth="1920" pageHeight="1200" math="0" shadow="0">
      <root>
        <mxCell id="kuvzvy3GPNXzr5ZJeTDZ-0" />
        <mxCell id="kuvzvy3GPNXzr5ZJeTDZ-1" parent="kuvzvy3GPNXzr5ZJeTDZ-0" />
        <mxCell id="kuvzvy3GPNXzr5ZJeTDZ-2" value="FROM&amp;nbsp;" style="rounded=0;whiteSpace=wrap;html=1;fontSize=22;fillColor=#dae8fc;strokeColor=#6c8ebf;" vertex="1" parent="kuvzvy3GPNXzr5ZJeTDZ-1">
          <mxGeometry x="560" y="240" width="150" height="50" as="geometry" />
        </mxCell>
        <mxCell id="kuvzvy3GPNXzr5ZJeTDZ-3" value="&amp;nbsp; node:alpine" style="rounded=0;whiteSpace=wrap;html=1;fontSize=22;fillColor=#dae8fc;strokeColor=#6c8ebf;align=left;" vertex="1" parent="kuvzvy3GPNXzr5ZJeTDZ-1">
          <mxGeometry x="710" y="240" width="200" height="50" as="geometry" />
        </mxCell>
        <mxCell id="kuvzvy3GPNXzr5ZJeTDZ-4" value="WORKDIR" style="rounded=0;whiteSpace=wrap;html=1;fontSize=22;fillColor=#dae8fc;strokeColor=#6c8ebf;" vertex="1" parent="kuvzvy3GPNXzr5ZJeTDZ-1">
          <mxGeometry x="560" y="302" width="150" height="50" as="geometry" />
        </mxCell>
        <mxCell id="kuvzvy3GPNXzr5ZJeTDZ-5" value="&amp;nbsp; /app" style="rounded=0;whiteSpace=wrap;html=1;fontSize=22;fillColor=#dae8fc;strokeColor=#6c8ebf;align=left;" vertex="1" parent="kuvzvy3GPNXzr5ZJeTDZ-1">
          <mxGeometry x="710" y="302" width="200" height="50" as="geometry" />
        </mxCell>
        <mxCell id="kuvzvy3GPNXzr5ZJeTDZ-6" value="COPY&amp;nbsp;" style="rounded=0;whiteSpace=wrap;html=1;fontSize=22;fillColor=#dae8fc;strokeColor=#6c8ebf;" vertex="1" parent="kuvzvy3GPNXzr5ZJeTDZ-1">
          <mxGeometry x="560" y="364" width="150" height="50" as="geometry" />
        </mxCell>
        <mxCell id="kuvzvy3GPNXzr5ZJeTDZ-7" value="&amp;nbsp;package.json" style="rounded=0;whiteSpace=wrap;html=1;fontSize=22;fillColor=#dae8fc;strokeColor=#6c8ebf;align=left;" vertex="1" parent="kuvzvy3GPNXzr5ZJeTDZ-1">
          <mxGeometry x="710" y="364" width="200" height="50" as="geometry" />
        </mxCell>
        <mxCell id="kuvzvy3GPNXzr5ZJeTDZ-8" value="RUN" style="rounded=0;whiteSpace=wrap;html=1;fontSize=22;fillColor=#dae8fc;strokeColor=#6c8ebf;" vertex="1" parent="kuvzvy3GPNXzr5ZJeTDZ-1">
          <mxGeometry x="560" y="426" width="150" height="50" as="geometry" />
        </mxCell>
        <mxCell id="kuvzvy3GPNXzr5ZJeTDZ-9" value="&amp;nbsp;npm install" style="rounded=0;whiteSpace=wrap;html=1;fontSize=22;fillColor=#dae8fc;strokeColor=#6c8ebf;align=left;" vertex="1" parent="kuvzvy3GPNXzr5ZJeTDZ-1">
          <mxGeometry x="710" y="426" width="200" height="50" as="geometry" />
        </mxCell>
        <mxCell id="kuvzvy3GPNXzr5ZJeTDZ-10" value="COPY&amp;nbsp;" style="rounded=0;whiteSpace=wrap;html=1;fontSize=22;fillColor=#dae8fc;strokeColor=#6c8ebf;" vertex="1" parent="kuvzvy3GPNXzr5ZJeTDZ-1">
          <mxGeometry x="560" y="488" width="150" height="50" as="geometry" />
        </mxCell>
        <mxCell id="kuvzvy3GPNXzr5ZJeTDZ-11" value="&amp;nbsp; ./ ./" style="rounded=0;whiteSpace=wrap;html=1;fontSize=22;fillColor=#dae8fc;strokeColor=#6c8ebf;align=left;" vertex="1" parent="kuvzvy3GPNXzr5ZJeTDZ-1">
          <mxGeometry x="710" y="488" width="200" height="50" as="geometry" />
        </mxCell>
        <mxCell id="kuvzvy3GPNXzr5ZJeTDZ-12" value="CMD" style="rounded=0;whiteSpace=wrap;html=1;fontSize=22;fillColor=#dae8fc;strokeColor=#6c8ebf;" vertex="1" parent="kuvzvy3GPNXzr5ZJeTDZ-1">
          <mxGeometry x="560" y="550" width="150" height="50" as="geometry" />
        </mxCell>
        <mxCell id="kuvzvy3GPNXzr5ZJeTDZ-13" value="&amp;nbsp;[&quot;npm&quot;, &quot;start&quot;" style="rounded=0;whiteSpace=wrap;html=1;fontSize=22;fillColor=#dae8fc;strokeColor=#6c8ebf;align=left;" vertex="1" parent="kuvzvy3GPNXzr5ZJeTDZ-1">
          <mxGeometry x="710" y="550" width="200" height="50" as="geometry" />
        </mxCell>
        <mxCell id="kuvzvy3GPNXzr5ZJeTDZ-14" value="" style="shape=curlyBracket;whiteSpace=wrap;html=1;rounded=1;fontSize=22;align=left;rotation=-180;" vertex="1" parent="kuvzvy3GPNXzr5ZJeTDZ-1">
          <mxGeometry x="920" y="240" width="30" height="50" as="geometry" />
        </mxCell>
        <mxCell id="kuvzvy3GPNXzr5ZJeTDZ-15" value="Specify base image" style="text;html=1;strokeColor=none;fillColor=none;align=left;verticalAlign=middle;whiteSpace=wrap;rounded=0;fontSize=16;" vertex="1" parent="kuvzvy3GPNXzr5ZJeTDZ-1">
          <mxGeometry x="950" y="255" width="170" height="20" as="geometry" />
        </mxCell>
        <mxCell id="kuvzvy3GPNXzr5ZJeTDZ-16" value="" style="shape=curlyBracket;whiteSpace=wrap;html=1;rounded=1;fontSize=22;align=left;rotation=-180;" vertex="1" parent="kuvzvy3GPNXzr5ZJeTDZ-1">
          <mxGeometry x="920" y="302" width="30" height="50" as="geometry" />
        </mxCell>
        <mxCell id="kuvzvy3GPNXzr5ZJeTDZ-17" value="Set the working directory to &#39;/app&#39; in the container.&amp;nbsp; All following commands will be issued relative to this dir" style="text;html=1;strokeColor=none;fillColor=none;align=left;verticalAlign=middle;whiteSpace=wrap;rounded=0;fontSize=16;" vertex="1" parent="kuvzvy3GPNXzr5ZJeTDZ-1">
          <mxGeometry x="950" y="317" width="290" height="20" as="geometry" />
        </mxCell>
        <mxCell id="kuvzvy3GPNXzr5ZJeTDZ-18" value="" style="shape=curlyBracket;whiteSpace=wrap;html=1;rounded=1;fontSize=22;align=left;rotation=-180;" vertex="1" parent="kuvzvy3GPNXzr5ZJeTDZ-1">
          <mxGeometry x="920" y="364" width="30" height="50" as="geometry" />
        </mxCell>
        <mxCell id="kuvzvy3GPNXzr5ZJeTDZ-19" value="Copy over &lt;i&gt;only&lt;/i&gt;&amp;nbsp;the package.json file" style="text;html=1;strokeColor=none;fillColor=none;align=left;verticalAlign=middle;whiteSpace=wrap;rounded=0;fontSize=16;" vertex="1" parent="kuvzvy3GPNXzr5ZJeTDZ-1">
          <mxGeometry x="950" y="379" width="290" height="20" as="geometry" />
        </mxCell>
        <mxCell id="kuvzvy3GPNXzr5ZJeTDZ-20" value="" style="shape=curlyBracket;whiteSpace=wrap;html=1;rounded=1;fontSize=22;align=left;rotation=-180;" vertex="1" parent="kuvzvy3GPNXzr5ZJeTDZ-1">
          <mxGeometry x="920" y="426" width="30" height="50" as="geometry" />
        </mxCell>
        <mxCell id="kuvzvy3GPNXzr5ZJeTDZ-21" value="Install all dependencies" style="text;html=1;strokeColor=none;fillColor=none;align=left;verticalAlign=middle;whiteSpace=wrap;rounded=0;fontSize=16;" vertex="1" parent="kuvzvy3GPNXzr5ZJeTDZ-1">
          <mxGeometry x="950" y="441" width="290" height="20" as="geometry" />
        </mxCell>
        <mxCell id="kuvzvy3GPNXzr5ZJeTDZ-22" value="" style="shape=curlyBracket;whiteSpace=wrap;html=1;rounded=1;fontSize=22;align=left;rotation=-180;" vertex="1" parent="kuvzvy3GPNXzr5ZJeTDZ-1">
          <mxGeometry x="920" y="488" width="30" height="50" as="geometry" />
        </mxCell>
        <mxCell id="kuvzvy3GPNXzr5ZJeTDZ-23" value="Copy over all of our remaining source code" style="text;html=1;strokeColor=none;fillColor=none;align=left;verticalAlign=middle;whiteSpace=wrap;rounded=0;fontSize=16;" vertex="1" parent="kuvzvy3GPNXzr5ZJeTDZ-1">
          <mxGeometry x="950" y="503" width="290" height="20" as="geometry" />
        </mxCell>
        <mxCell id="kuvzvy3GPNXzr5ZJeTDZ-24" value="" style="shape=curlyBracket;whiteSpace=wrap;html=1;rounded=1;fontSize=22;align=left;rotation=-180;" vertex="1" parent="kuvzvy3GPNXzr5ZJeTDZ-1">
          <mxGeometry x="920" y="550" width="30" height="50" as="geometry" />
        </mxCell>
        <mxCell id="kuvzvy3GPNXzr5ZJeTDZ-25" value="Set the command to run when the container starts up" style="text;html=1;strokeColor=none;fillColor=none;align=left;verticalAlign=middle;whiteSpace=wrap;rounded=0;fontSize=16;" vertex="1" parent="kuvzvy3GPNXzr5ZJeTDZ-1">
          <mxGeometry x="950" y="565" width="290" height="20" as="geometry" />
        </mxCell>
      </root>
    </mxGraphModel>
  </diagram>
</mxfile>
